<svg xmlns="http://www.w3.org/2000/svg" viewBox="0 0 25 20"><defs><style>.cls-1{fill:none;}.cls-2{fill:#3e3e3e;}</style></defs><g id="Layer_2" data-name="Layer 2"><g id="Layer_1-2" data-name="Layer 1"><polygon class="cls-1" points="5.59 4.08 8.27 4.08 6.65 0 6.65 0 3.97 0 5.59 4.08"/><polygon class="cls-1" points="10.45 4.08 13.17 4.08 11.55 0 8.82 0 10.45 4.08"/><polygon class="cls-1" points="20.2 4.08 22.85 4.08 21.26 0 18.58 0 20.2 4.08"/><polygon class="cls-1" points="15.35 4.08 18.03 4.08 16.41 0 13.72 0 15.35 4.08"/><polygon class="cls-1" points="4.3 6.21 4.27 6.23 2 0.52 2 17.87 23 17.87 23 6.21 4.3 6.21"/><path class="cls-2" d="M21.26,0l1.59,4.08H20.2L18.58,0H16.41L18,4.08H15.35L13.72,0H11.55l1.62,4.08H10.45L8.82,0H6.65L8.27,4.08H5.59L4,0H0V20H25V0ZM23,17.87H2V.52L4.3,6.21H23Z"/><polygon class="cls-2" points="11.1 15.09 15.79 12.1 11.12 9.14 11.1 15.09"/></g></g></svg>