<?xml version="1.0" encoding="utf-8"?>
<!-- Generator: Adobe Illustrator 23.0.1, SVG Export Plug-In . SVG Version: 6.00 Build 0)  -->
<svg version="1.1" id="Layer_1" xmlns="http://www.w3.org/2000/svg" xmlns:xlink="http://www.w3.org/1999/xlink" x="0px" y="0px"
	 viewBox="0 0 28 28" style="enable-background:new 0 0 28 28;" xml:space="preserve">
<style type="text/css">
	.st0{fill:none;stroke:#3E3E3E;stroke-width:2.1015;}
	.st1{fill:none;stroke:#3E3E3E;stroke-width:2.1015;stroke-linecap:round;}
	.st2{fill:#3E3E3E;}
</style>
<g id="WARCBOX_black_1_" transform="translate(-0.016 -0.039)">
	<g id="Page-1_1_" transform="translate(83 70)">
		<g id="Group-7_1_" transform="translate(0 0.839)">
			<path id="Stroke-1_1_" class="st0" d="M-69-44l12.8-6.4v-12.8L-69-69.6l-12.8,6.4v12.8L-69-44z"/>
			<path id="Stroke-3_1_" class="st0" d="M-56.2-63.2L-69-56.8V-44"/>
			<path id="Stroke-5_1_" class="st0" d="M-69-56.8l-12.8-6.4"/>
		</g>
		<path id="Stroke-9_1_" class="st1" d="M-75.5-59.3l13.1-6.2"/>
	</g>
	<path id="W_1_" class="st2" d="M4.7,19.7l1.7,0.9l1-3.1l1,4.1l1.7,0.9l1.8-6.3l-1.9-1l-0.9,3.1l-0.9-4l-1.7-0.9l-0.9,3l-0.9-3.8
		l-1.9-1L4.7,19.7z"/>
</g>
</svg>
